<svg xmlns="http://www.w3.org/2000/svg" width="130.1" height="114.51" viewBox="0 0 130.1 114.51">
  <g id="Group_4" data-name="Group 4" transform="translate(-778.872 -354.848)">
    <path id="savings_FILL0_wght400_GRAD0_opsz48" d="M74,49a4.911,4.911,0,1,0-3.562-1.437A4.838,4.838,0,0,0,74,49ZM37.75,36.5h17.5a3.751,3.751,0,1,0,0-7.5H37.75a3.751,3.751,0,1,0,0,7.5ZM22.75,99a8.037,8.037,0,0,1-4.938-1.75A8.249,8.249,0,0,1,14.75,93Q11.625,82.25,9.563,74.438T6.25,60.75Q5,54.875,4.5,50.313A80.934,80.934,0,0,1,4,41.5,26.535,26.535,0,0,1,12,22a26.535,26.535,0,0,1,19.5-8h25a25.418,25.418,0,0,1,8.563-7.25A24.036,24.036,0,0,1,76.5,4a7.233,7.233,0,0,1,5.313,2.188A7.233,7.233,0,0,1,84,11.5a6.164,6.164,0,0,1-.187,1.5,10.681,10.681,0,0,1-.437,1.375q-.5,1.375-.937,2.75a19.859,19.859,0,0,0-.687,3L93.125,31.5h7.125A3.634,3.634,0,0,1,104,35.25V63.625a3.879,3.879,0,0,1-.688,2.25,3.482,3.482,0,0,1-1.937,1.375L89.875,71l-6.75,22.625a7.264,7.264,0,0,1-2.75,3.938A7.524,7.524,0,0,1,75.875,99H61.5A7.469,7.469,0,0,1,54,91.5V89H44v2.5A7.469,7.469,0,0,1,36.5,99Zm-.625-7.5H36.5v-10h25v10H75.875L83.75,65.25,96.5,60.875V39H90L74,23a43.736,43.736,0,0,1,.688-5.187Q75.25,14.75,76.25,11a30.684,30.684,0,0,0-9.5,4.125,17.357,17.357,0,0,0-6,6.375H31.5a19.259,19.259,0,0,0-14.125,5.875A19.259,19.259,0,0,0,11.5,41.5q0,5.25,2.75,18.313T22.125,91.5ZM54,51.25Z" transform="translate(774.872 370.357)" fill="#785baf"/>
    <g id="Group_5" data-name="Group 5" transform="translate(-452.264 -188.402)" opacity="0.6">
      <line id="Line_1" data-name="Line 1" x2="28.85" transform="translate(1330.136 559.837)" fill="none" stroke="#785baf" stroke-linecap="round" stroke-width="4.5"/>
      <line id="Line_2" data-name="Line 2" x1="29.108" transform="translate(1344.561 545.5) rotate(90)" fill="none" stroke="#785baf" stroke-linecap="round" stroke-width="4.5"/>
    </g>
  </g>
</svg>
