<svg xmlns="http://www.w3.org/2000/svg" width="131.837" height="113.782" viewBox="0 0 131.837 113.782">
  <g id="Group_3" data-name="Group 3" transform="translate(-778.872 -355.576)">
    <path id="savings_FILL0_wght400_GRAD0_opsz48" d="M74,49a4.911,4.911,0,1,0-3.562-1.437A4.838,4.838,0,0,0,74,49ZM37.75,36.5h17.5a3.751,3.751,0,1,0,0-7.5H37.75a3.751,3.751,0,1,0,0,7.5ZM22.75,99a8.037,8.037,0,0,1-4.938-1.75A8.249,8.249,0,0,1,14.75,93Q11.625,82.25,9.563,74.438T6.25,60.75Q5,54.875,4.5,50.313A80.934,80.934,0,0,1,4,41.5,26.535,26.535,0,0,1,12,22a26.535,26.535,0,0,1,19.5-8h25a25.418,25.418,0,0,1,8.563-7.25A24.036,24.036,0,0,1,76.5,4a7.233,7.233,0,0,1,5.313,2.188A7.233,7.233,0,0,1,84,11.5a6.164,6.164,0,0,1-.187,1.5,10.681,10.681,0,0,1-.437,1.375q-.5,1.375-.937,2.75a19.859,19.859,0,0,0-.687,3L93.125,31.5h7.125A3.634,3.634,0,0,1,104,35.25V63.625a3.879,3.879,0,0,1-.688,2.25,3.482,3.482,0,0,1-1.937,1.375L89.875,71l-6.75,22.625a7.264,7.264,0,0,1-2.75,3.938A7.524,7.524,0,0,1,75.875,99H61.5A7.469,7.469,0,0,1,54,91.5V89H44v2.5A7.469,7.469,0,0,1,36.5,99Zm-.625-7.5H36.5v-10h25v10H75.875L83.75,65.25,96.5,60.875V39H90L74,23a43.736,43.736,0,0,1,.688-5.187Q75.25,14.75,76.25,11a30.684,30.684,0,0,0-9.5,4.125,17.357,17.357,0,0,0-6,6.375H31.5a19.259,19.259,0,0,0-14.125,5.875A19.259,19.259,0,0,0,11.5,41.5q0,5.25,2.75,18.313T22.125,91.5ZM54,51.25Z" transform="translate(774.872 370.357)" fill="#785baf"/>
    <path id="history_FILL0_wght400_GRAD0_opsz48" d="M27.364,24.867l6.271,6.162a1.646,1.646,0,0,1,0,2.345,1.581,1.581,0,0,1-2.29,0l-6.762-6.653a1.581,1.581,0,0,1-.382-.573,1.821,1.821,0,0,1-.109-.627V16.2a1.636,1.636,0,1,1,3.272,0ZM25.456,45.262A18.4,18.4,0,0,1,12.5,40.354,19.977,19.977,0,0,1,6.152,28.085a1.7,1.7,0,0,1,.3-1.309,1.522,1.522,0,0,1,1.172-.6,1.43,1.43,0,0,1,1.145.409,1.94,1.94,0,0,1,.6,1.118,16.956,16.956,0,0,0,5.344,10.2,15.237,15.237,0,0,0,10.742,4.09A15.858,15.858,0,0,0,37.18,37.137a16.13,16.13,0,0,0,4.8-11.779,15.229,15.229,0,0,0-4.853-11.424A16.243,16.243,0,0,0,25.456,9.272a14.829,14.829,0,0,0-6.953,1.69,18.962,18.962,0,0,0-5.644,4.471h4.09a1.636,1.636,0,1,1,0,3.272H8.824A1.585,1.585,0,0,1,7.188,17.07V9A1.585,1.585,0,0,1,8.824,7.363,1.585,1.585,0,0,1,10.46,9v4.144a20.751,20.751,0,0,1,6.734-5.235A18.549,18.549,0,0,1,25.456,6a19.481,19.481,0,0,1,7.689,1.527,20.148,20.148,0,0,1,6.3,4.172A19.583,19.583,0,0,1,43.7,17.888a18.8,18.8,0,0,1,1.554,7.634A19.186,19.186,0,0,1,43.7,33.211a19.737,19.737,0,0,1-4.253,6.271,20.3,20.3,0,0,1-6.3,4.226A19.185,19.185,0,0,1,25.456,45.262Z" transform="translate(864.959 350.076)" fill="#785baf" stroke="#785baf" stroke-width="1" opacity="0.6"/>
  </g>
</svg>
